<?xml version="1.0" standalone="no"?>
<!DOCTYPE svg PUBLIC "-//W3C//DTD SVG 20010904//EN"
 "http://www.w3.org/TR/2001/REC-SVG-20010904/DTD/svg10.dtd">
<svg version="1.0" xmlns="http://www.w3.org/2000/svg"
 width="301.000000pt" height="301.000000pt" viewBox="0 0 301.000000 301.000000"
 preserveAspectRatio="xMidYMid meet">
<metadata>
Created by potrace 1.11, written by Peter Selinger 2001-2013
</metadata>
<g transform="translate(0.000000,301.000000) scale(0.100000,-0.100000)"
fill="#000000" stroke="none">
<path d="M310 1548 c0 -1341 0 -1364 20 -1395 11 -18 23 -33 28 -33 4 0 23 11
42 23 19 13 55 35 80 49 25 14 84 48 131 76 l86 51 0 271 c1 149 4 274 7 277
3 3 27 -8 53 -25 26 -16 68 -41 93 -55 25 -13 186 -106 359 -206 172 -100 315
-180 318 -178 2 3 4 92 5 199 1 186 0 196 -23 235 -16 28 -39 49 -74 67 -54
27 -78 41 -310 174 -82 47 -172 98 -200 113 -135 74 -169 95 -173 107 -2 6 1
12 6 12 7 0 126 67 212 120 16 9 254 148 403 234 49 28 106 61 126 73 l37 21
124 -73 c69 -41 136 -80 150 -88 82 -45 469 -272 490 -287 l25 -18 -2 -453 -1
-454 23 -35 c17 -26 66 -60 186 -130 90 -52 167 -97 171 -98 4 -2 8 303 8 677
l0 681 -25 40 c-13 21 -44 50 -67 63 -122 70 -499 283 -538 305 -25 14 -57 33
-72 43 -14 11 -28 19 -31 19 -2 0 -98 54 -213 121 -115 67 -227 131 -249 144
-22 12 -170 98 -330 190 -159 92 -407 235 -550 317 -143 83 -275 159 -292 170
l-33 20 0 -1364z m587 580 c76 -46 150 -90 166 -97 15 -8 26 -18 25 -23 -4
-10 -380 -229 -385 -224 -4 4 -6 131 -4 329 l1 128 29 -16 c16 -8 92 -52 168
-97z"/>
</g>
</svg>
